<svg width="644" height="135" viewBox="0 0 644 135" fill="none" xmlns="http://www.w3.org/2000/svg">
<path d="M482.16 0H469.558V67.5684H482.16V0ZM75.2348 134.211C90.4508 134.047 107.508 127.721 118.674 117.395C131.391 105.634 131.73 105.426 148.792 105.478L168.427 105.487L227.9 105.485L247.551 105.484C248.378 105.484 249.212 105.486 250.05 105.487C253.681 105.494 257.4 105.501 260.964 105.356C262.087 103.051 262.041 101.506 261.966 99.0029L261.962 98.8623C261.955 98.6223 261.952 98.3831 261.951 98.1445V96.7471C261.943 95.1567 261.853 93.6045 261.102 92.1133C259.507 91.6489 255.482 91.7142 252.962 91.7549C252.535 91.7618 252.15 91.7677 251.829 91.7705L251.5 78.0684C251.501 77.7564 251.5 77.466 251.499 77.1797C251.498 76.6641 251.497 76.161 251.5 75.5684C251.516 72.8821 251.505 68.1118 251.501 66.2783L251.5 65.8018V65.5684C251.5 65.0695 251.518 41.2226 251.518 41.1172C252.177 39.756 253.081 38.3613 254.232 36.9346C255.848 34.9311 257.981 33.2507 260.63 31.8936C263.28 30.4718 266.415 29.7617 270.034 29.7617V18.3223C267.19 18.3223 264.701 18.839 262.569 19.873C260.436 20.9071 258.626 22.2641 257.14 23.9443C255.654 25.56 254.459 27.2734 253.554 29.083C252.649 30.8278 251.97 32.4754 251.518 34.0264V19.3887H238.915L238.5 83.9072C236.664 83.8679 234.533 83.8799 232.48 83.8975L231.608 83.9053C230.572 83.9146 229.568 83.9233 228.65 83.9258V82.8848C228.65 79.0073 227.842 75.9377 226.226 73.6758C224.61 71.4786 222.252 69.8952 219.15 68.9258C216.112 68.021 212.428 67.5684 208.098 67.5684H192.296C190.875 67.5683 189.776 67.3099 189 66.793C188.225 66.2113 187.837 65.4352 187.837 64.4658C187.838 62.8504 188.807 61.7846 190.746 61.2676C192.749 60.6859 195.786 60.3304 199.858 60.2012C205.222 60.2012 209.843 59.4251 213.721 57.874C217.663 56.2583 220.701 53.964 222.833 50.9912C224.966 47.9538 226.033 44.3345 226.033 40.1338C226.033 37.5488 225.418 35.2864 224.19 33.3477C223.027 31.3445 221.476 29.5995 219.538 28.1133C218.583 27.3497 217.597 26.649 216.58 26.0107C218.409 26.6411 220.397 27.2446 222.542 27.8223C225.968 28.6624 229.328 29.05 232.624 28.9854V19.4854L208.292 19.3887C206.935 19.0655 205.545 18.8072 204.123 18.6133C202.766 18.4194 201.344 18.3223 199.858 18.3223C194.494 18.3223 189.808 19.1945 185.801 20.9395C181.859 22.6844 178.822 25.1409 176.689 28.3076C174.556 31.4743 173.49 35.2229 173.49 39.5527C173.49 43.9472 174.589 47.6958 176.787 50.7979C178.984 53.8997 182.053 56.2584 185.996 57.874C187.121 58.3098 188.295 58.6847 189.518 58.998C187.699 59.024 185.975 59.1658 184.347 59.4248C181.504 59.8772 179.242 60.7826 177.562 62.1396C175.882 63.4322 175.041 65.371 175.041 67.9561C175.041 69.2486 175.3 70.4443 175.817 71.543C176.334 72.7062 177.174 73.7077 178.337 74.5479C179.501 75.388 181.052 76.0349 182.991 76.4873C184.994 76.9396 187.45 77.165 190.358 77.165H205.384C208.68 77.1651 211.265 77.747 213.139 78.9102C214.883 79.9565 215.843 83.6171 216.018 86.5059C216.009 86.9086 216.002 88.2451 216 91.5684C205.651 91.7219 194.72 91.7031 184.048 91.6846C180.277 91.678 176.535 91.6716 172.865 91.6729L159.664 91.7061C159.045 91.7068 158.422 91.7111 157.798 91.7148C155.507 91.7285 153.192 91.7426 150.918 91.6113C147.057 91.3883 145.458 90.8716 142.148 89.2139C137.119 86.6963 134.727 82.7876 132.091 78.4785C131.412 77.3683 130.717 76.2314 129.956 75.085C127.603 71.5414 124.906 68.1526 122.104 64.9414C114.189 55.8712 104.545 49.3564 93.267 45.168C92.8787 45.0238 92.4794 44.8733 92.0737 44.7197C90.5599 44.1469 88.9536 43.5388 87.4682 43.1201C85.968 42.6973 84.2874 42.4387 82.6616 42.1885C82.0538 42.0949 81.4519 42.0017 80.8715 41.9023C77.5713 41.3372 74.4247 40.8498 71.0786 40.6416C67.1587 40.3818 63.2232 40.4554 59.3159 40.8613C57.5318 41.0596 55.7519 41.3012 53.9721 41.543C52.6305 41.7252 51.289 41.9077 49.9457 42.0713C49.109 42.1732 48.2683 42.262 47.4272 42.3516C45.6165 42.5443 43.8022 42.7379 42.0151 43.0566C40.8286 43.2682 39.6576 43.5619 38.4868 43.8555C37.531 44.0951 36.5744 44.3352 35.6098 44.5303C34.3885 44.7773 33.1541 44.9651 31.9204 45.1533C31.0353 45.2883 30.1481 45.4234 29.268 45.5801C23.7566 46.5611 18.4428 47.5059 12.8432 47.915C12.4167 47.9462 11.6868 47.9788 10.7866 48.0195C7.26915 48.1787 1.15299 48.4556 0.38129 49.1953C0.0623532 49.5011 0.0167596 50.1228 0.00433733 50.54C-0.0639069 52.8327 0.685454 55.3662 1.38617 57.7344C1.6148 58.507 1.83869 59.262 2.0268 59.9854C6.82521 78.4395 16.1266 98.6793 29.2377 112.71C41.4594 125.789 57.2184 133.605 75.2348 134.211ZM304.872 68.7314C310.365 68.7314 315.018 67.9883 318.831 66.502C322.644 65.0155 325.649 62.9796 327.846 60.3945C330.108 57.8095 331.498 54.8692 332.015 51.5732H319.8C319.025 53.7705 317.279 55.5802 314.565 57.002C311.915 58.359 308.587 59.0371 304.581 59.0371C300.961 59.0371 297.827 58.4562 295.177 57.293C292.592 56.1297 290.524 54.5454 288.973 52.542C287.487 50.5386 286.581 48.3093 286.258 45.8535H332.208C332.532 39.5847 331.659 34.4464 329.591 30.4395C327.588 26.3681 324.485 23.3306 320.285 21.3271C316.084 19.3238 310.817 18.3223 304.484 18.3223C298.28 18.3223 292.851 19.3238 288.198 21.3271C283.609 23.3305 280.022 26.2389 277.437 30.0518C274.852 33.8001 273.559 38.3246 273.559 43.624C273.559 48.9233 274.884 53.447 277.534 57.1953C280.183 60.9437 283.868 63.8198 288.585 65.8232C293.303 67.762 298.732 68.7314 304.872 68.7314ZM368.632 68.7314C374.126 68.7314 378.779 67.9884 382.592 66.502C386.405 65.0155 389.411 62.9796 391.608 60.3945C393.87 57.8095 395.259 54.8691 395.776 51.5732H383.562C382.786 53.7705 381.041 55.5802 378.327 57.002C375.677 58.359 372.349 59.0371 368.342 59.0371C364.723 59.0371 361.589 58.4561 358.939 57.293C356.354 56.1297 354.286 54.5454 352.735 52.542C351.248 50.5386 350.343 48.3093 350.02 45.8535H395.97C396.293 39.5847 395.421 34.4464 393.353 30.4395C391.35 26.368 388.247 23.3306 384.046 21.3271C379.846 19.3237 374.578 18.3223 368.245 18.3223C362.04 18.3223 356.612 19.3237 351.958 21.3271C347.37 23.3305 343.784 26.239 341.199 30.0518C338.614 33.8001 337.321 38.3246 337.321 43.624C337.321 48.9233 338.646 53.447 341.295 57.1953C343.945 60.9436 347.629 63.8198 352.346 65.8232C357.064 67.762 362.493 68.7314 368.632 68.7314ZM416.011 38.918C416.508 37.7065 417.249 36.5278 418.241 35.3838C419.921 33.3804 422.118 31.732 424.832 30.4395C427.547 29.1469 430.585 28.501 433.946 28.501C438.405 28.501 441.604 29.4705 443.542 31.4092C445.546 33.2834 446.547 36.2566 446.547 40.3281V67.5684H459.15V38.0986C459.15 34.6734 458.633 31.7322 457.599 29.2764C456.565 26.756 455.111 24.6879 453.237 23.0723C451.363 21.4566 449.165 20.2609 446.645 19.4854C444.125 18.7098 441.378 18.3223 438.405 18.3223C434.979 18.3223 431.909 18.839 429.195 19.873C426.481 20.9071 424.122 22.3292 422.119 24.1387C420.18 25.8836 418.629 27.8224 417.465 29.9551C416.87 31.0458 416.386 32.1538 416.011 33.2783V19.3887H403.409V67.5684H416.011V38.918ZM555.941 68.7314C561.434 68.7314 566.088 67.9884 569.901 66.502C573.714 65.0155 576.719 62.9796 578.916 60.3945C581.178 57.8095 582.567 54.8691 583.084 51.5732H570.871C570.095 53.7705 568.35 55.5802 565.635 57.002C562.986 58.359 559.657 59.0371 555.651 59.0371C552.032 59.0371 548.897 58.4561 546.248 57.293C543.662 56.1297 541.593 54.5454 540.042 52.542C538.556 50.5387 537.652 48.3092 537.329 45.8535H583.279C583.602 39.5847 582.73 34.4464 580.662 30.4395C578.658 26.368 575.556 23.3306 571.355 21.3271C567.154 19.3237 561.887 18.3223 555.553 18.3223C549.349 18.3223 543.92 19.3237 539.267 21.3271C534.679 23.3305 531.092 26.239 528.507 30.0518C525.922 33.8001 524.629 38.3246 524.629 43.624C524.629 48.9233 525.954 53.447 528.604 57.1953C531.254 60.9436 534.937 63.8198 539.655 65.8232C544.372 67.762 549.801 68.7314 555.941 68.7314ZM498.359 40.9199L522.779 19.3887H505.62L482.451 40.5215L509.012 67.5684H525.008L498.359 40.9199ZM643.402 19.3887H629.927L613.785 54.7666L597.839 19.3887H584.461L607.608 67.1221L596.967 86.957H610.054L643.402 19.3887ZM199.858 51.0879C197.015 51.0879 194.527 50.6361 192.394 49.7314C190.326 48.8267 188.71 47.5338 187.546 45.8535C186.383 44.1086 185.801 42.0405 185.801 39.6494C185.801 37.1936 186.383 35.0926 187.546 33.3477C188.71 31.6028 190.358 30.2778 192.491 29.373C194.623 28.4037 197.079 27.919 199.858 27.9189C202.701 27.9189 205.158 28.4036 207.226 29.373C209.294 30.2778 210.909 31.6029 212.073 33.3477C213.236 35.0926 213.818 37.1936 213.818 39.6494C213.818 42.0406 213.236 44.1086 212.073 45.8535C210.909 47.5338 209.261 48.8267 207.128 49.7314C205.06 50.6361 202.637 51.0879 199.858 51.0879ZM286.937 38.4863C287.777 35.5135 289.652 33.0249 292.56 31.0215C295.468 28.9535 299.249 27.9189 303.902 27.9189C308.62 27.919 312.336 28.8884 315.05 30.8271C317.829 32.7013 319.38 35.255 319.704 38.4863H286.937ZM350.699 38.4863C351.539 35.5136 353.413 33.0249 356.321 31.0215C359.229 28.9534 363.01 27.9189 367.664 27.9189C372.381 27.919 376.098 28.8884 378.812 30.8271C381.591 32.7013 383.141 35.255 383.464 38.4863H350.699ZM538.007 38.4863C538.847 35.5135 540.721 33.0249 543.629 31.0215C546.538 28.9534 550.319 27.9189 554.972 27.9189C559.69 27.919 563.406 28.8884 566.121 30.8271C568.899 32.7013 570.45 35.255 570.773 38.4863H538.007ZM81.6577 123.717C68.367 125.405 54.6661 121.299 44.0561 113.097C29.7615 102.046 20.8995 85.5908 14.8422 68.8701C13.4384 64.995 12.2855 61.6031 11.4975 57.541C15.0248 57.2528 19.5653 57.169 22.9272 56.6455C33.9792 54.9247 44.908 52.4336 56.0092 51.0742C75.2706 48.7155 93.722 52.558 108.762 65.3213C113.32 69.2426 117.341 73.7466 120.724 78.7168C123.012 82.0358 127.404 89.2566 130.239 91.6357C121.467 93.9858 116.215 94.4665 107.044 94.4932C97.166 94.5867 87.3227 93.3018 77.7993 90.6758C76.154 90.229 74.5168 89.6172 72.8823 89.1201C65.5623 86.9262 58.4169 84.1862 51.5073 80.9219C47.1975 78.8945 42.605 76.4324 38.3871 74.1846C37.8466 74.5266 37.9699 74.3424 37.8344 74.8516C38.0859 75.2351 38.2606 75.4022 38.5727 75.7236L38.4907 76.0029C40.5674 78.6305 44.95 81.9916 47.5913 84.0176C57.8694 91.9906 69.6176 97.8607 82.1645 101.293C83.596 101.699 85.4595 102.407 86.8881 102.649C95.5152 104.116 104.265 105.313 113.029 105.376C114.337 105.386 115.681 105.373 116.983 105.419C115.682 107.098 113.635 108.8 111.999 110.202C103.471 117.65 92.8985 122.358 81.6577 123.717Z" fill="#8DC149"/>
</svg>
